<?xml version="1.0" encoding="utf-8"?>
<!-- Generator: Adobe Illustrator 23.0.3, SVG Export Plug-In . SVG Version: 6.00 Build 0)  -->
<svg version="1.1" id="Layer_1" xmlns="http://www.w3.org/2000/svg" xmlns:xlink="http://www.w3.org/1999/xlink" x="0px" y="0px"
	 viewBox="0 0 512 512" style="enable-background:new 0 0 512 512;" xml:space="preserve">
<g>
	<path d="M403.1,509.8L403.1,509.8c3.6-0.8,7.3-1.7,10.7-2.6c13-3.7,24.6-10.8,35.4-21.8c9.4-9.6,19.1-19.3,28.5-28.7
		c6.2-6.2,12.7-12.7,18.9-18.9l13.1-13.1c-33.9-33.9-69.4-69.5-98-98.2L379,293.6l-2.4,2.3l-4.5,4.4c-15,14.5-28,27.1-40.9,39.6
		c-3.2,3.2-6.7,4.8-10.5,4.8c-3.6,0-6.5-1.5-8.3-2.6c-59.5-36.2-108.2-84.9-144.7-144.8c-4-6.5-3.3-12.9,2.1-18.4
		c8-8,16-16.1,23.8-24c5.1-5.2,10.3-10.4,15.3-15.5c1.5-1.6,3.2-3.2,4.7-4.8c0.8-0.8,1.7-1.7,2.5-2.5l-6.7-6.7
		C170.9,86.5,131,46.5,88,3.2c-1.8,1.8-3.6,3.6-5.3,5.3c-2.5,2.5-5,5-7.6,7.5C57.8,33.3,42.6,48.5,28.5,62.2C13.4,77,5,93.5,3,112.7
		c-0.1,1.1-0.3,2.2-0.7,3.2V128c3,22.3,14.1,41.2,25.9,61.2l1.2,2.1c1.5,2.6,3,5.2,4.6,7.8l0,0l0,0
		c31.8,55.7,72.6,108.7,121.2,157.4c30.2,30.2,62,57.4,94.7,81c33.8,24.5,69.7,46.1,106.7,64.1c6.1,3,13.1,4.7,20.5,6.5
		c3.2,0.8,6.4,1.6,9.7,2.5H399C400.5,510.5,401.8,510.2,403.1,509.8L403.1,509.8z M392,487.7c-8.6,0-17.6-2.2-26.6-6.6
		c-56.2-27.9-109.2-63.7-157.5-106.4c-74.3-65.6-133.5-142-176-227.1c-11.5-23.1-8.4-46.7,8.6-64.6c9.2-9.8,18.7-19.1,27.9-28
		c2-1.9,3.9-3.9,5.9-5.8c2-1.9,3.9-3.9,5.9-5.8c0.8-0.8,4.6-4.3,5.1-4.6l2.2-2l2.1,2.1l6.1,6.1l82.4,81l4.7,4.5l2.3,2.3l-2.4,2.2
		l-4.8,4.5c-1.2,1.1-2.3,2.1-3.4,3l-0.3,0.3c-2.1,1.9-4.2,3.8-6,5.6c-2.2,2.2-4.4,4.4-6.5,6.6c-2.2,2.2-4.3,4.3-6.4,6.5
		c-6.7,6.8-13.7,13.9-20.7,20.8c12.9,29,31.1,56.5,57.2,86.5c39,45,80,78.2,125.5,101.6c1.3,0.6,2.6,1.4,3.9,2.1
		c3.8,2.2,5.5,2.9,6.3,3.1c0.6-0.5,1.7-1.5,3.9-4l0,0l0,0c1.2-1.3,2.4-2.6,3.7-3.9l0,0l0,0c5.8-5.5,11.6-11.1,17.2-16.5
		c3.1-3,6.1-5.9,9.1-8.8c3.3-3.2,6.5-6.3,9.7-9.4l4.3-4.2l2.2-2.1l2.2,2.1l4.3,4.2l59.4,59.1L469,417l4.3,4.2l2.2,2.1l-2.1,2.2
		l-4.1,4.5l-5.7,6c-6,6.3-12.1,12.7-18.2,19.1c-6.4,6.8-12.9,13.6-19.3,20.3l0,0l0,0c-1,1-2.1,1.7-2.8,2.2l-0.1,0.1
		c-0.1,0.1-0.3,0.2-0.4,0.2l-0.1,0.1C412.9,484.5,402.6,487.7,392,487.7z" fill="#fff"/>
	<polygon points="460.9,63 446.9,48.8 342.9,151.4 357.7,166.6 359.1,165.2 461.8,63.9 	" fill="#fff"/>
	<polygon points="499.9,153.8 451.9,177.4 388.4,208.6 389.1,210.2 398.5,229 460.8,198.3 510,174.2 	" fill="#fff"/>
	<polygon points="332.4,3.7 312.9,42.5 277.7,112.2 284.6,115.7 298.1,122.5 352.7,14 	" fill="#fff"/>
</g>
</svg>
