<?xml version="1.0" encoding="utf-8"?>
<!-- Generator: Adobe Illustrator 21.1.0, SVG Export Plug-In . SVG Version: 6.00 Build 0)  -->
<svg version="1.1" baseProfile="tiny" xmlns="http://www.w3.org/2000/svg" xmlns:xlink="http://www.w3.org/1999/xlink" x="0px"
	 y="0px" viewBox="0 0 439.9 82.6" xml:space="preserve">
<g id="Layer_1" xmlns:xodm="http://www.corel.com/coreldraw/odm/2003">
</g>
<g id="Layer_3">
</g>
<g id="Layer_4">
	<g id="logo_1_">
		<path fill="#E31F25" d="M85.4,43.9c-0.3,0-0.8,0-1.4-0.1c-0.6,0-1.1-0.1-1.4-0.1c-0.3,0-0.8,0-1.4,0.1c-0.6,0-1.1,0.1-1.4,0.1
			V20.8c-2.1,0-4.4,0.2-7,0.5c0.1-0.9,0.2-1.4,0.2-1.6c0-0.2-0.1-0.7-0.2-1.6h19.4c0,0.2-0.1,0.4-0.1,0.6c0,0.2-0.1,0.3-0.1,0.5
			c0,0.2,0,0.3,0,0.5c0,0.1,0,0.3,0,0.5c0,0.2,0.1,0.4,0.1,0.5c0,0.2,0.1,0.4,0.1,0.6c-3-0.4-5.2-0.5-6.7-0.5
			C85.4,20.8,85.4,43.9,85.4,43.9z M125.9,18.1c-0.1,0.9-0.2,1.5-0.2,1.6c0,0.2,0.1,0.7,0.2,1.6c-2.7-0.3-5.6-0.5-8.8-0.5v8.1h4
			c1.1,0,2.6-0.1,4.7-0.3c-0.1,0.8-0.2,1.3-0.2,1.6c0,0.3,0.1,0.8,0.2,1.6c-1.5-0.2-3-0.3-4.7-0.3h-4v9.5c3.2,0,6.1-0.2,8.8-0.5
			c-0.1,0.9-0.2,1.5-0.2,1.6c0,0.2,0.1,0.7,0.2,1.6h-14.4V18.1C111.4,18.1,125.9,18.1,125.9,18.1z M146.3,18.1c2.4,0,4.5,0,6.2,0
			c1.7,0,3.5,0,5.2,0c4.4,0,8.2,0,11.4,0v25.9c-0.3,0-0.8,0-1.4-0.1c-0.6,0-1.1-0.1-1.5-0.1c-0.3,0-0.8,0-1.4,0.1
			c-0.6,0-1.1,0.1-1.4,0.1v-23c-2-0.1-3.9-0.1-5.8-0.1c-2,0-3.9,0-5.8,0.1v23c-0.3,0-0.8,0-1.4-0.1c-0.6,0-1.1-0.1-1.4-0.1
			c-0.3,0-0.8,0-1.4,0.1c-0.6,0-1.1,0.1-1.4,0.1L146.3,18.1L146.3,18.1z M200.7,18.2c0.1,0,0.2,0,0.4,0c0.1,0,0.3,0,0.4,0
			c0.1,0,0.3,0,0.4,0c0.1,0,0.3,0,0.4,0c0.8,2.3,1.6,4.3,2.3,6.1c0.7,1.7,1.5,3.9,2.5,6.5c1,2.6,1.8,4.6,2.4,6
			c0.6,1.4,1.6,3.9,3,7.3c-0.5,0-0.9-0.1-1.3-0.1c-0.4,0-0.7-0.1-1.1-0.1c-0.4,0-0.7,0-0.9,0c-0.2,0-0.6,0-1,0
			c-0.4,0-0.8,0.1-1.1,0.1c-0.4,0-0.8,0.1-1.2,0.1c-0.4-1.4-0.9-2.9-1.4-4.5c-0.5-1.6-1-2.9-1.5-4.1c-0.4-1.2-1-2.8-1.8-4.8
			c-0.8-2-1.4-3.8-2-5.3c-3.1,7.4-5.4,13.6-7,18.7c-0.6-0.1-1.2-0.1-1.8-0.1c-0.6,0-1.2,0-1.7,0.1c1.1-2.5,2-4.8,2.9-6.9
			c0.9-2.1,1.8-4.1,2.6-6.1c0.8-2,1.7-4.1,2.5-6.2c0.9-2.2,1.7-4.4,2.5-6.6c0,0,0.3,0,0.7,0.1C200.2,18.2,200.5,18.2,200.7,18.2
			L200.7,18.2z M232,18.1c0.4,0,0.8,0.1,1.1,0.1c0.3,0,0.6,0.1,0.9,0.1c0.3,0,0.6,0,0.8,0c0.2,0,0.5,0,0.8,0c0.3,0,0.6-0.1,0.9-0.1
			c0.3,0,0.7-0.1,1.1-0.1v17.7c1.1-1.2,2.4-2.6,3.7-4.1c1.3-1.5,2.6-3.1,3.8-4.6c1.2-1.5,2.4-3.1,3.6-4.7c1.2-1.6,2.3-3.1,3.2-4.4
			c0.3,0,0.7,0,1.2,0c0.8,0,1.3,0,1.7,0v25.9c-0.3,0-0.8,0-1.4-0.1c-0.6,0-1.1-0.1-1.5-0.1c-0.3,0-0.7,0-1.4,0.1
			c-0.6,0-1.1,0.1-1.4,0.1V26.1c-1.1,1.3-2.2,2.6-3.3,3.9c-1.1,1.3-2.4,2.9-3.9,4.7c-1.5,1.8-2.8,3.5-4,5s-2.3,3-3.2,4.2
			c-0.3,0-0.7,0-1.2,0c-0.7,0-1.3,0-1.7,0L232,18.1L232,18.1z M275.9,18.1c0.4,0,0.8,0.1,1.1,0.1c0.3,0,0.6,0.1,0.9,0.1
			c0.3,0,0.6,0,0.8,0c0.2,0,0.5,0,0.8,0c0.3,0,0.6,0,0.9-0.1c0.3,0,0.7-0.1,1.1-0.1v9.8c0,1.1,0.4,1.8,1.3,2.2
			c0.9,0.4,1.9,0.6,3.1,0.6c1.7,0,3.7-0.8,6.1-2.5V18.1c0.4,0,0.8,0.1,1.1,0.1c0.3,0,0.6,0.1,0.9,0.1s0.6,0,0.8,0c0.2,0,0.5,0,0.8,0
			c0.3,0,0.7-0.1,1-0.1c0.3,0,0.7-0.1,1.1-0.1v25.8c-0.3,0-0.8,0-1.4-0.1c-0.6,0-1.1-0.1-1.5-0.1c-0.3,0-0.8,0-1.4,0.1
			c-0.6,0-1.1,0.1-1.4,0.1V31.3c-1.1,0.7-2,1.2-2.9,1.5c-0.8,0.4-1.7,0.7-2.6,0.9c-0.9,0.2-1.9,0.3-3,0.3c-1.3,0-2.5-0.2-3.7-0.8
			c-1.2-0.5-2.2-1.2-2.9-2.2c-0.7-0.9-1.1-2-1.1-3.2L275.9,18.1L275.9,18.1z M319.8,18.1c0.4,0,0.8,0.1,1.1,0.1
			c0.3,0,0.6,0.1,0.9,0.1c0.3,0,0.6,0,0.8,0c0.2,0,0.5,0,0.8,0c0.3,0,0.6-0.1,0.9-0.1c0.3,0,0.7-0.1,1.1-0.1v10.2
			c3.1,0.1,5.1,0.2,5.8,0.2c0.6,0,2.5-0.1,5.8-0.2V18.1c0.4,0,0.8,0.1,1.1,0.1c0.3,0,0.6,0.1,0.9,0.1c0.3,0,0.6,0,0.8,0
			c0.2,0,0.5,0,0.8,0c0.3,0,0.7,0,0.9-0.1c0.3,0,0.7-0.1,1.1-0.1v25.8c-0.3,0-0.8,0-1.4-0.1c-0.6,0-1.1-0.1-1.5-0.1
			c-0.3,0-0.8,0-1.4,0.1c-0.6,0-1.1,0.1-1.4,0.1V31.3c-2.6-0.1-4.5-0.1-5.8-0.1c-1.3,0-3.3,0-5.8,0.1v12.6c-0.3,0-0.8,0-1.4-0.1
			c-0.6,0-1.1-0.1-1.4-0.1c-0.3,0-0.8,0-1.4,0.1c-0.6,0-1.1,0.1-1.4,0.1L319.8,18.1L319.8,18.1z M370.3,29.2h3.6
			c2.7,0,4.7,0.5,6,1.6c1.4,1.1,2.1,2.7,2.1,4.8c0,3.1-0.9,5.2-2.7,6.4c-1.8,1.2-4.2,1.8-7.1,1.8h-7.6V17.9c0.3,0,0.8,0,1.3,0.1
			c0.6,0,1.1,0.1,1.5,0.1c0.4,0,0.9,0,1.5-0.1c0.6,0,1-0.1,1.4-0.1L370.3,29.2L370.3,29.2z M385.4,18.1c0.4,0,0.8,0.1,1.1,0.1
			c0.3,0,0.6,0.1,0.9,0.1c0.3,0,0.6,0,0.8,0s0.5,0,0.8,0c0.3,0,0.6-0.1,0.9-0.1c0.3,0,0.7-0.1,1.1-0.1v25.8c-0.3,0-0.8,0-1.4-0.1
			c-0.6,0-1.1-0.1-1.4-0.1c-0.3,0-0.8,0-1.4,0.1c-0.6,0-1.1,0.1-1.4,0.1L385.4,18.1L385.4,18.1z M370.3,41.7c1,0,1.9-0.1,2.5-0.3
			c1.2-0.3,2-0.9,2.5-1.8c0.5-0.9,0.8-2,0.8-3.3c0-1.5-0.3-2.7-1-3.6c-0.7-0.9-1.5-1.4-2.5-1.4h-2.3V41.7z M413.1,18.1
			c0.4,0,0.8,0.1,1.1,0.1c0.3,0,0.6,0.1,0.9,0.1c0.3,0,0.6,0,0.8,0c0.2,0,0.5,0,0.8,0c0.3,0,0.6,0,0.9-0.1c0.3,0,0.7-0.1,1.1-0.1
			v17.7c1.2-1.2,2.4-2.6,3.7-4.1c1.3-1.5,2.6-3.1,3.8-4.6c1.2-1.5,2.4-3.1,3.6-4.7c1.2-1.6,2.3-3.1,3.2-4.4c0.2,0,0.7,0,1.2,0
			c0.8,0,1.3,0,1.7,0v25.9c-0.3,0-0.8,0-1.4-0.1c-0.6,0-1.1-0.1-1.5-0.1c-0.3,0-0.8,0-1.4,0.1c-0.6,0-1.1,0.1-1.4,0.1V26.1
			c-1.1,1.3-2.2,2.6-3.3,3.9c-1.1,1.3-2.4,2.9-3.9,4.7c-1.4,1.8-2.8,3.5-4,5s-2.3,3-3.2,4.2c-0.3,0-0.7,0-1.2,0c-0.7,0-1.3,0-1.7,0
			L413.1,18.1L413.1,18.1z M416.7,11.6c2.4,2.4,5,3.6,7.9,3.6c3,0,5.7-1.2,8.1-3.6l1.5,1.9c-0.9,0.9-1.9,1.6-2.9,2.3
			c-1.1,0.6-2.2,1.1-3.3,1.4c-1.1,0.3-2.3,0.5-3.5,0.5c-1.7,0-3.3-0.3-4.9-1c-1.6-0.7-3-1.6-4.4-2.9L416.7,11.6L416.7,11.6z"/>
		<path fill="#E31F25" d="M35.5,0c4,0,7.8,0.8,11.2,2.3l-2.8,4.8L31.6,0.3C32.9,0.1,34.2,0,35.5,0z M52.8,5.9c2.1,1.6,4,3.6,5.6,5.7
			l-6.4-1.4C51.9,10.2,52.8,5.9,52.8,5.9z M61.7,17.7c1.3,3.3,2.1,6.9,2.1,10.7c0,15.6-12.7,28.3-28.3,28.3
			C19.8,56.7,7.2,44,7.2,28.3c0-12.8,8.5-23.6,20.1-27.1L38.4,14l-19,17.9l23.7-10.6L53.8,45l-2.3-26L61.7,17.7z"/>
		<path fill="#009847" d="M0,52.1c18.2,3.6,29.1,16.1,32.1,30.5C13.3,79.8,2.1,66.8,0,52.1z"/>
		<path fill="#009847" d="M55.3,54.2C44.1,56.4,37.4,64.2,35.5,73C47.1,71.3,54,63.3,55.3,54.2z"/>
		<path fill="#E31F25" d="M89.8,60.6L89,62.2h-0.3c-0.1-0.1-0.3-0.3-0.4-0.4c-0.2-0.2-0.3-0.3-0.5-0.4c-0.4-0.3-0.9-0.5-1.5-0.7
			c-0.6-0.2-1.3-0.2-1.9-0.2c-1.9,0-3.4,0.5-4.5,1.5c-1,0.9-1.5,2.1-1.5,3.4c0,1.5,0.6,2.8,1.8,3.8c1.2,1,2.7,1.5,4.6,1.5
			c0.9,0,1.8-0.1,2.6-0.4c0.6-0.2,1.3-0.6,2.2-1.1l0.2,0.1l-0.2,1.1c-1.6,0.8-3.3,1.2-5.3,1.2c-2.8,0-5-0.6-6.6-1.7
			c-1.5-1.1-2.3-2.5-2.3-4.2c0-1.8,0.8-3.2,2.5-4.3s3.8-1.6,6.5-1.6c1.1,0,2,0.1,2.9,0.2C88.1,60,89,60.3,89.8,60.6L89.8,60.6z
			 M113.2,60.9v10.3l-1.4-0.1l-1.4,0.1V60.9c-1.6,0-2.8,0-3.6,0c-0.8,0-1.6,0.1-2.4,0.2l0.1-0.7l-0.1-0.6h14.7l-0.1,0.6l0.1,0.7
			c-0.8-0.1-1.5-0.1-2.3-0.2C116,61,114.8,60.9,113.2,60.9L113.2,60.9z M138.5,68.7l0,1.2c-0.9,0.4-1.8,0.8-2.8,1s-2,0.4-3.1,0.4
			c-2.5,0-4.4-0.5-5.9-1.6c-1.5-1.1-2.2-2.5-2.2-4.3c0-1.7,0.7-3.1,2-4.2c1.4-1.1,3.4-1.7,5.9-1.7c2.1,0,3.7,0.5,5,1.4
			c1.4,1,2.1,2.5,2.1,4.4l-7-0.1h-4.9c0,1.4,0.5,2.6,1.4,3.5c1.1,1,2.6,1.5,4.6,1.5c1.1,0,2.1-0.2,3.1-0.6
			C137.2,69.6,137.9,69.2,138.5,68.7z M127.4,64.5h9.2c0-1.2-0.3-2.2-0.9-2.9c-0.7-0.9-1.9-1.3-3.5-1.3c-1.6,0-2.8,0.4-3.7,1.3
			C127.8,62.5,127.4,63.4,127.4,64.5L127.4,64.5z M153.8,59.8h6.9v11.4l-1.4-0.1l-1.4,0.1V60.9h-8.4v10.3l-1.4-0.1l-1.4,0.1V59.8
			H153.8L153.8,59.8z M172.4,66.1l-2.8,5.1l-1.1-0.1l-1.1,0.1c0.4-0.6,1.1-1.7,2.3-3.4c1-1.6,1.9-2.9,2.6-4.1c1-1.7,1.8-3,2.2-3.9
			l1,0.1l1.1-0.1c0.7,1.4,1.8,3.1,3,5.3c1.4,2.4,2.7,4.4,3.8,6.1l-1.6-0.1l-1.5,0.1c-1.1-2.4-2.8-5.5-5.2-9.2
			c-0.3,0.2-0.8,0.9-1.5,2L172.4,66.1L172.4,66.1z M188.6,65.4c0-1.7,0.8-3.1,2.5-4.1c1.7-1.1,3.8-1.6,6.3-1.6
			c2.4,0,4.3,0.5,5.8,1.6c1.5,1.1,2.2,2.5,2.2,4.2c0,1.6-0.7,3-2.2,4.1c-1.6,1.2-3.8,1.8-6.5,1.8c-2.4,0-4.3-0.5-5.9-1.6
			S188.6,67.2,188.6,65.4L188.6,65.4z M197.3,60.4c-2,0-3.5,0.6-4.5,1.7c-0.8,0.9-1.2,2.2-1.2,3.7c0,1.3,0.4,2.5,1.2,3.3
			c0.9,1,2.3,1.6,4.2,1.6c1.8,0,3.2-0.6,4.2-1.9c0.8-1,1.1-2.1,1.1-3.4c0-1.3-0.3-2.4-1-3.3C200.4,61,199.1,60.4,197.3,60.4z
			 M211.5,71.2c0.3-1,0.7-2.7,1.2-5.1c0.1-0.8,0.5-2.9,1.1-6.3h0.9c1.2,1.6,2.5,3.3,3.8,4.9c1.3,1.6,2.5,2.9,3.5,4
			c2-2.4,4.3-5.4,6.9-8.9h0.9c0.3,1.7,0.5,3.1,0.7,4.3c0.2,1.2,0.4,2.5,0.7,3.8c0.2,1.4,0.4,2.5,0.6,3.3l-1.5-0.1l-1.5,0.1
			c0-1.5-0.1-3.2-0.4-4.9c-0.1-0.5-0.2-1.4-0.5-2.9c-2.1,2.4-4.2,5-6.2,7.8h-0.8c-1.1-1.5-2.1-2.8-3.1-4c-1.1-1.3-2.2-2.6-3.3-3.8
			c-0.3,1.4-0.5,2.8-0.8,4.2c-0.3,1.4-0.4,2.6-0.4,3.6c-0.3,0-0.6-0.1-0.9-0.1L211.5,71.2L211.5,71.2z M252.1,68.1
			c1.5-1.1,3.1-2.4,4.9-3.9c1.8-1.5,3.4-3,4.9-4.4h1.4v11.4l-1.4-0.1l-1.4,0.1v-8.3c-1.6,1.2-2.7,2.1-3.4,2.7
			c-1.1,0.9-2.2,1.8-3.4,2.8c-1.2,1-2.2,2-3,2.8h-1.4V59.8c0.1,0,0.4,0,0.8,0c0.4,0,0.6,0,0.6,0c0.2,0,0.4,0,0.7,0
			c0.3,0,0.6-0.1,0.7-0.1L252.1,68.1L252.1,68.1z M284.6,66.1l-2.8,5.1l-1.1-0.1l-1.1,0.1c0.4-0.6,1.1-1.7,2.3-3.4
			c1-1.6,1.9-2.9,2.6-4.1c1-1.7,1.8-3,2.2-3.9l1,0.1l1.1-0.1c0.7,1.4,1.8,3.1,3,5.3c1.4,2.4,2.7,4.4,3.8,6.1l-1.6-0.1l-1.5,0.1
			c-1.1-2.4-2.8-5.5-5.2-9.2c-0.3,0.2-0.8,0.9-1.5,2L284.6,66.1L284.6,66.1z M316,60.4c-2,0-3.5,0.6-4.5,1.7
			c-0.8,0.9-1.2,2.2-1.2,3.7c0,1.3,0.4,2.5,1.2,3.3c0.9,1,2.3,1.6,4.2,1.6c1.8,0,3.2-0.6,4.2-1.9c0.8-1,1.1-2.1,1.1-3.4
			c0-1.3-0.3-2.4-1-3.3C319.1,61,317.8,60.4,316,60.4L316,60.4z M315.4,71.4c-2.3,0-4.3-0.5-5.8-1.6c-1.6-1.1-2.4-2.5-2.4-4.2
			l-2.2,0v5.5l-1.4-0.1l-1.4,0.1V59.8l1.4,0.1l1.4-0.1v4.8h2.3c0.3-1.5,1.2-2.7,2.8-3.6c1.6-0.9,3.6-1.4,5.9-1.4
			c2.4,0,4.3,0.5,5.8,1.6c1.5,1.1,2.2,2.5,2.2,4.2c0,1.6-0.7,3-2.2,4.1C320.3,70.8,318.1,71.4,315.4,71.4z M332.8,61
			c0.8-0.4,1.7-0.8,2.7-1c1.1-0.2,2.2-0.3,3.4-0.3c2.4,0,4.3,0.5,5.8,1.6c1.5,1.1,2.2,2.5,2.2,4.2c0,1.6-0.7,3-2.2,4.1
			c-1.6,1.2-3.8,1.8-6.5,1.8c-2.4,0-4.3-0.5-5.9-1.6s-2.3-2.5-2.3-4.4c0-4.4,1-7.2,3.1-8.5c2.1-1.3,6.3-2,12.7-2l-0.1,0.7l0.1,0.7
			c-0.6-0.1-1.4-0.1-2.4-0.2c-1,0-1.9-0.1-2.9-0.1c-2.5,0-4.4,0.4-5.8,1.4C333.5,58.3,332.8,59.5,332.8,61L332.8,61z M338.9,60.4
			c-2,0-3.5,0.6-4.5,1.7c-0.8,0.9-1.2,2.2-1.2,3.7c0,1.3,0.4,2.5,1.2,3.3c0.9,1,2.3,1.6,4.2,1.6c1.8,0,3.2-0.6,4.2-1.9
			c0.8-1,1.1-2.1,1.1-3.4c0-1.3-0.3-2.4-1-3.3C342,61,340.7,60.4,338.9,60.4L338.9,60.4z M353.1,65.4c0-1.7,0.8-3.1,2.5-4.1
			c1.7-1.1,3.8-1.6,6.3-1.6c2.4,0,4.3,0.5,5.8,1.6c1.5,1.1,2.2,2.5,2.2,4.2c0,1.6-0.7,3-2.2,4.1c-1.6,1.2-3.8,1.8-6.5,1.8
			c-2.4,0-4.3-0.5-5.9-1.6C353.8,68.7,353.1,67.2,353.1,65.4L353.1,65.4z M361.8,60.4c-2,0-3.5,0.6-4.5,1.7
			c-0.8,0.9-1.2,2.2-1.2,3.7c0,1.3,0.4,2.5,1.2,3.3c1,1,2.4,1.6,4.2,1.6c1.8,0,3.2-0.6,4.2-1.9c0.8-1,1.1-2.1,1.1-3.4
			c0-1.3-0.3-2.4-1-3.3C364.9,61,363.6,60.4,361.8,60.4L361.8,60.4z M380.2,65.6v4.6h3.6c1.1,0,2.1-0.2,2.8-0.6
			c0.7-0.4,1.1-0.9,1.1-1.6c0-0.9-0.3-1.5-1-1.9c-0.7-0.4-1.6-0.6-2.9-0.6H380.2z M380.2,60.8v3.9h3.3c1.1,0,1.9-0.2,2.5-0.5
			c0.6-0.3,0.9-0.8,0.9-1.5c0-0.7-0.3-1.1-0.9-1.4c-0.6-0.3-1.4-0.5-2.3-0.5C383.6,60.8,380.2,60.8,380.2,60.8z M377.4,71.1V59.9
			h6.7c1.8,0,3.1,0.2,4.1,0.6c1.1,0.5,1.7,1.2,1.7,2.2c0,0.7-0.3,1.2-1,1.6c-0.7,0.4-1.6,0.7-2.7,0.8c1.5,0.2,2.6,0.4,3.3,0.8
			c0.9,0.5,1.4,1.2,1.4,2.2c0,1-0.6,1.8-1.8,2.4c-1.1,0.5-2.5,0.8-4.2,0.8H377.4L377.4,71.1z M401.2,65.5v4.7c0.6,0,1,0,1.5,0
			c0.4,0,0.8,0,1.1,0c1.1,0,2.1-0.2,2.9-0.6c0.9-0.4,1.3-1,1.3-1.7c0-0.8-0.4-1.4-1.1-1.8c-0.7-0.4-1.6-0.6-2.7-0.6H401.2
			L401.2,65.5z M398.4,71.1V59.8c0.4,0,0.8,0.1,1.4,0.1c0.6,0,1,0,1.4-0.1v4.7h4.1c1.7,0,3,0.3,4,0.8c1.1,0.6,1.7,1.4,1.7,2.5
			c0,0.9-0.6,1.7-1.9,2.3c-1.3,0.6-2.6,1-4.1,1H398.4L398.4,71.1z M431.9,60.4c-2,0-3.5,0.6-4.5,1.7c-0.8,0.9-1.2,2.2-1.2,3.7
			c0,1.3,0.4,2.5,1.2,3.3c0.9,1,2.4,1.6,4.2,1.6c1.8,0,3.2-0.6,4.2-1.9c0.8-1,1.1-2.1,1.1-3.4c0-1.3-0.4-2.4-1-3.3
			C435,61,433.6,60.4,431.9,60.4L431.9,60.4z M431.3,71.4c-2.3,0-4.3-0.5-5.8-1.6c-1.6-1.1-2.4-2.5-2.4-4.2l-2.2,0v5.5l-1.4-0.1
			l-1.4,0.1V59.8l1.4,0.1l1.4-0.1v4.8h2.2c0.3-1.5,1.2-2.7,2.9-3.6c1.6-0.9,3.6-1.4,5.9-1.4c2.4,0,4.3,0.5,5.8,1.6
			c1.5,1.1,2.2,2.5,2.2,4.2c0,1.6-0.7,3-2.2,4.1C436.2,70.8,434,71.4,431.3,71.4z"/>
	</g>
</g>
</svg>
